<svg xmlns="http://www.w3.org/2000/svg" width="1440" height="900"><path d="M838,528L735,388L681,483Z" fill="#fffc9c" stroke="#fffc9c" stroke-width="1.51"/><path d="M838,528L885,320L735,388Z" fill="#fff49b" stroke="#fff49b" stroke-width="1.51"/><path d="M694,772L954,701L838,528Z" fill="#fde398" stroke="#fde398" stroke-width="1.51"/><path d="M492,301L509,527L681,483Z" fill="#fff39b" stroke="#fff39b" stroke-width="1.51"/><path d="M885,320L713,204L735,388Z" fill="#ffed9a" stroke="#ffed9a" stroke-width="1.51"/><path d="M735,388L492,301L681,483Z" fill="#fff49b" stroke="#fff49b" stroke-width="1.51"/><path d="M838,528L1127,540L885,320Z" fill="#feee9a" stroke="#feee9a" stroke-width="1.51"/><path d="M694,772L838,528L681,483Z" fill="#fff19b" stroke="#fff19b" stroke-width="1.51"/><path d="M509,527L694,772L681,483Z" fill="#ffeb9a" stroke="#ffeb9a" stroke-width="1.51"/><path d="M713,204L492,301L735,388Z" fill="#feec99" stroke="#feec99" stroke-width="1.51"/><path d="M954,701L1053,675L838,528Z" fill="#fdde96" stroke="#fdde96" stroke-width="1.51"/><path d="M960,868L1053,675L954,701Z" fill="#fcd094" stroke="#fcd094" stroke-width="1.51"/><path d="M1053,675L1127,540L838,528Z" fill="#fedf97" stroke="#fedf97" stroke-width="1.51"/><path d="M509,527L556,779L694,772Z" fill="#fddf97" stroke="#fddf97" stroke-width="1.51"/><path d="M1127,540L1133,357L885,320Z" fill="#fee498" stroke="#fee498" stroke-width="1.51"/><path d="M885,320L960,120L713,204Z" fill="#fde097" stroke="#fde097" stroke-width="1.51"/><path d="M1133,357L1038,191L885,320Z" fill="#fddb96" stroke="#fddb96" stroke-width="1.51"/><path d="M713,204L576,131L492,301Z" fill="#fde097" stroke="#fde097" stroke-width="1.51"/><path d="M769,-2L576,131L713,204Z" fill="#fddc96" stroke="#fddc96" stroke-width="1.51"/><path d="M1038,191L960,120L885,320Z" fill="#fdd896" stroke="#fdd896" stroke-width="1.51"/><path d="M492,301L393,293L509,527Z" fill="#fee698" stroke="#fee698" stroke-width="1.51"/><path d="M509,527L400,788L556,779Z" fill="#fdd896" stroke="#fdd896" stroke-width="1.51"/><path d="M388,227L393,293L492,301Z" fill="#fdda96" stroke="#fdda96" stroke-width="1.51"/><path d="M1053,675L1217,562L1127,540Z" fill="#fdd595" stroke="#fdd595" stroke-width="1.51"/><path d="M694,772L960,868L954,701Z" fill="#fcd595" stroke="#fcd595" stroke-width="1.51"/><path d="M689,914L960,868L694,772Z" fill="#fcd595" stroke="#fcd595" stroke-width="1.51"/><path d="M1036,-54L870,33L960,120Z" fill="#fac792" stroke="#fac792" stroke-width="1.51"/><path d="M960,120L870,33L713,204Z" fill="#fcd796" stroke="#fcd796" stroke-width="1.51"/><path d="M556,779L689,914L694,772Z" fill="#fdd795" stroke="#fdd795" stroke-width="1.51"/><path d="M576,131L388,227L492,301Z" fill="#fdd996" stroke="#fdd996" stroke-width="1.51"/><path d="M1127,540L1217,562L1133,357Z" fill="#fddd97" stroke="#fddd97" stroke-width="1.51"/><path d="M1282,740L1217,562L1053,675Z" fill="#fccb93" stroke="#fccb93" stroke-width="1.51"/><path d="M140,338L317,533L393,293Z" fill="#fddb96" stroke="#fddb96" stroke-width="1.51"/><path d="M393,293L317,533L509,527Z" fill="#feea99" stroke="#feea99" stroke-width="1.51"/><path d="M870,33L769,-2L713,204Z" fill="#fdd795" stroke="#fdd795" stroke-width="1.51"/><path d="M576,131L488,-29L388,227Z" fill="#fcce94" stroke="#fcce94" stroke-width="1.51"/><path d="M556,779L473,875L689,914Z" fill="#fcce94" stroke="#fcce94" stroke-width="1.51"/><path d="M317,533L400,788L509,527Z" fill="#fdda96" stroke="#fdda96" stroke-width="1.51"/><path d="M400,788L473,875L556,779Z" fill="#fbcb93" stroke="#fbcb93" stroke-width="1.51"/><path d="M1133,357L1256,297L1038,191Z" fill="#fcd294" stroke="#fcd294" stroke-width="1.51"/><path d="M1038,191L1036,-54L960,120Z" fill="#fbc892" stroke="#fbc892" stroke-width="1.51"/><path d="M1217,562L1256,297L1133,357Z" fill="#fdda96" stroke="#fdda96" stroke-width="1.51"/><path d="M769,-2L488,-29L576,131Z" fill="#fbd094" stroke="#fbd094" stroke-width="1.51"/><path d="M1217,562L1463,535L1256,297Z" fill="#fcd495" stroke="#fcd495" stroke-width="1.51"/><path d="M1093,953L1282,740L1053,675Z" fill="#fac191" stroke="#fac191" stroke-width="1.51"/><path d="M960,868L1093,953L1053,675Z" fill="#fac592" stroke="#fac592" stroke-width="1.51"/><path d="M1034,1100L1093,953L960,868Z" fill="#f9b78f" stroke="#f9b78f" stroke-width="1.51"/><path d="M1239,-61L1036,-54L1038,191Z" fill="#f9bc90" stroke="#f9bc90" stroke-width="1.51"/><path d="M928,-245L751,-219L769,-2Z" fill="#fabf90" stroke="#fabf90" stroke-width="1.51"/><path d="M769,-2L563,-247L488,-29Z" fill="#fac391" stroke="#fac391" stroke-width="1.51"/><path d="M1256,297L1285,162L1038,191Z" fill="#fbc892" stroke="#fbc892" stroke-width="1.51"/><path d="M1440,192L1285,162L1256,297Z" fill="#fabf90" stroke="#fabf90" stroke-width="1.51"/><path d="M400,788L314,886L473,875Z" fill="#fac291" stroke="#fac291" stroke-width="1.51"/><path d="M483,1053L706,1102L689,914Z" fill="#fac291" stroke="#fac291" stroke-width="1.51"/><path d="M689,914L904,1093L960,868Z" fill="#fac592" stroke="#fac592" stroke-width="1.51"/><path d="M112,661L314,886L400,788Z" fill="#fac191" stroke="#fac191" stroke-width="1.51"/><path d="M483,1053L689,914L473,875Z" fill="#fbc391" stroke="#fbc391" stroke-width="1.51"/><path d="M706,1102L904,1093L689,914Z" fill="#fac491" stroke="#fac491" stroke-width="1.51"/><path d="M388,227L140,338L393,293Z" fill="#fcd395" stroke="#fcd395" stroke-width="1.51"/><path d="M317,533L112,661L400,788Z" fill="#fccc93" stroke="#fccc93" stroke-width="1.51"/><path d="M155,118L140,338L388,227Z" fill="#fbc892" stroke="#fbc892" stroke-width="1.51"/><path d="M314,886L483,1053L473,875Z" fill="#f9bc90" stroke="#f9bc90" stroke-width="1.51"/><path d="M1093,953L1254,922L1282,740Z" fill="#f8b58f" stroke="#f8b58f" stroke-width="1.51"/><path d="M1220,1097L1254,922L1093,953Z" fill="#f7ab8c" stroke="#f7ab8c" stroke-width="1.51"/><path d="M140,338L110,582L317,533Z" fill="#fcd795" stroke="#fcd795" stroke-width="1.51"/><path d="M706,1102L1034,1100L904,1093Z" fill="#f9b68f" stroke="#f9b68f" stroke-width="1.51"/><path d="M904,1093L1034,1100L960,868Z" fill="#f9b78f" stroke="#f9b78f" stroke-width="1.51"/><path d="M110,582L112,661L317,533Z" fill="#fbcc93" stroke="#fbcc93" stroke-width="1.51"/><path d="M488,-29L299,-30L388,227Z" fill="#fac391" stroke="#fac391" stroke-width="1.51"/><path d="M225,-156L299,-30L290,-242Z" fill="#f6a78c" stroke="#f6a78c" stroke-width="1.51"/><path d="M928,-245L769,-2L870,33Z" fill="#fac491" stroke="#fac491" stroke-width="1.51"/><path d="M1282,740L1463,535L1217,562Z" fill="#fbc692" stroke="#fbc692" stroke-width="1.51"/><path d="M1502,741L1463,535L1282,740Z" fill="#f9b990" stroke="#f9b990" stroke-width="1.51"/><path d="M140,338L-34,486L110,582Z" fill="#fcd094" stroke="#fcd094" stroke-width="1.51"/><path d="M299,-30L155,118L388,227Z" fill="#fac091" stroke="#fac091" stroke-width="1.51"/><path d="M1036,-54L928,-245L870,33Z" fill="#f9bc90" stroke="#f9bc90" stroke-width="1.51"/><path d="M1285,162L1239,-61L1038,191Z" fill="#fabd90" stroke="#fabd90" stroke-width="1.51"/><path d="M1445,-40L1239,-61L1285,162Z" fill="#f7ac8c" stroke="#f7ac8c" stroke-width="1.51"/><path d="M1517,349L1440,192L1256,297Z" fill="#fabf91" stroke="#fabf91" stroke-width="1.51"/><path d="M1112,-180L928,-245L1036,-54Z" fill="#f7af8d" stroke="#f7af8d" stroke-width="1.51"/><path d="M1239,-61L1112,-180L1036,-54Z" fill="#f7ae8d" stroke="#f7ae8d" stroke-width="1.51"/><path d="M928,-245L563,-247L751,-219Z" fill="#f9bb90" stroke="#f9bb90" stroke-width="1.51"/><path d="M751,-219L563,-247L769,-2Z" fill="#fbc391" stroke="#fbc391" stroke-width="1.51"/><path d="M314,886L346,1124L483,1053Z" fill="#f8b08e" stroke="#f8b08e" stroke-width="1.51"/><path d="M112,661L149,897L314,886Z" fill="#f9b78f" stroke="#f9b78f" stroke-width="1.51"/><path d="M1463,535L1517,349L1256,297Z" fill="#fbc993" stroke="#fbc993" stroke-width="1.51"/><path d="M155,118L30,307L140,338Z" fill="#fac291" stroke="#fac291" stroke-width="1.51"/><path d="M110,582L-34,486L112,661Z" fill="#fac592" stroke="#fac592" stroke-width="1.51"/><path d="M112,661L-35,778L149,897Z" fill="#f8b38e" stroke="#f8b38e" stroke-width="1.51"/><path d="M225,-156L182,-14L299,-30Z" fill="#f7ac8d" stroke="#f7ac8d" stroke-width="1.51"/><path d="M299,-30L182,-14L155,118Z" fill="#f8b38e" stroke="#f8b38e" stroke-width="1.51"/><path d="M155,118L-35,222L30,307Z" fill="#f9ba8f" stroke="#f9ba8f" stroke-width="1.51"/><path d="M1439,897L1502,741L1282,740Z" fill="#f8ae8d" stroke="#f8ae8d" stroke-width="1.51"/><path d="M1034,1100L1220,1097L1093,953Z" fill="#f7aa8c" stroke="#f7aa8c" stroke-width="1.51"/><path d="M127,1059L346,1124L314,886Z" fill="#f6a88c" stroke="#f6a88c" stroke-width="1.51"/><path d="M483,1053L346,1124L706,1102Z" fill="#f8b38e" stroke="#f8b38e" stroke-width="1.51"/><path d="M706,1102L1483,1131L1034,1100Z" fill="#f6a78b" stroke="#f6a78b" stroke-width="1.51"/><path d="M1034,1100L1483,1131L1220,1097Z" fill="#f49b89" stroke="#f49b89" stroke-width="1.51"/><path d="M1463,535L1628,404L1517,349Z" fill="#fac491" stroke="#fac491" stroke-width="1.51"/><path d="M1439,897L1282,740L1254,922Z" fill="#f8af8d" stroke="#f8af8d" stroke-width="1.51"/><path d="M1483,1131L1439,897L1254,922Z" fill="#f49d89" stroke="#f49d89" stroke-width="1.51"/><path d="M30,307L-34,486L140,338Z" fill="#fbc992" stroke="#fbc992" stroke-width="1.51"/><path d="M290,-242L299,-30L488,-29Z" fill="#f8b18e" stroke="#f8b18e" stroke-width="1.51"/><path d="M-54,-33L-35,222L155,118Z" fill="#f7ad8d" stroke="#f7ad8d" stroke-width="1.51"/><path d="M1667,713L1597,560L1502,741Z" fill="#f7ad8d" stroke="#f7ad8d" stroke-width="1.51"/><path d="M1502,741L1597,560L1463,535Z" fill="#f9b88f" stroke="#f9b88f" stroke-width="1.51"/><path d="M30,307L-210,382L-34,486Z" fill="#fac291" stroke="#fac291" stroke-width="1.51"/><path d="M-54,-33L155,118L182,-14Z" fill="#f7ab8d" stroke="#f7ab8d" stroke-width="1.51"/><path d="M1239,-61L1237,-250L1112,-180Z" fill="#f5a38b" stroke="#f5a38b" stroke-width="1.51"/><path d="M1440,192L1445,-40L1285,162Z" fill="#f7af8d" stroke="#f7af8d" stroke-width="1.51"/><path d="M1582,-16L1445,-40L1440,192Z" fill="#f5a28b" stroke="#f5a28b" stroke-width="1.51"/><path d="M1628,115L1440,192L1517,349Z" fill="#f7b18d" stroke="#f7b18d" stroke-width="1.51"/><path d="M563,-247L290,-242L488,-29Z" fill="#f8b08e" stroke="#f8b08e" stroke-width="1.51"/><path d="M1403,-220L1237,-250L1239,-61Z" fill="#f49a89" stroke="#f49a89" stroke-width="1.51"/><path d="M1112,-180L1237,-250L928,-245Z" fill="#f6a48b" stroke="#f6a48b" stroke-width="1.51"/><path d="M928,-245L1237,-250L563,-247Z" fill="#f8af8d" stroke="#f8af8d" stroke-width="1.51"/><path d="M1597,560L1628,404L1463,535Z" fill="#fac090" stroke="#fac090" stroke-width="1.51"/><path d="M-34,486L-35,778L112,661Z" fill="#f9bb90" stroke="#f9bb90" stroke-width="1.51"/><path d="M149,897L127,1059L314,886Z" fill="#f7ab8d" stroke="#f7ab8d" stroke-width="1.51"/><path d="M-173,698L-35,778L-34,486Z" fill="#f9b48e" stroke="#f9b48e" stroke-width="1.51"/><path d="M6,907L127,1059L149,897Z" fill="#f5a38b" stroke="#f5a38b" stroke-width="1.51"/><path d="M-35,778L6,907L149,897Z" fill="#f7a88c" stroke="#f7a88c" stroke-width="1.51"/><path d="M1628,404L1628,115L1517,349Z" fill="#f8b28e" stroke="#f8b28e" stroke-width="1.51"/><path d="M1445,-40L1403,-220L1239,-61Z" fill="#f59c89" stroke="#f59c89" stroke-width="1.51"/><path d="M1597,560L1766,405L1628,404Z" fill="#f9bd90" stroke="#f9bd90" stroke-width="1.51"/><path d="M1628,404L1766,405L1628,115Z" fill="#f8af8d" stroke="#f8af8d" stroke-width="1.51"/><path d="M1590,970L1667,713L1502,741Z" fill="#f5a08a" stroke="#f5a08a" stroke-width="1.51"/><path d="M1590,970L1502,741L1439,897Z" fill="#f5a08a" stroke="#f5a08a" stroke-width="1.51"/><path d="M1664,-224L1403,-220L1445,-40Z" fill="#f18d86" stroke="#f18d86" stroke-width="1.51"/><path d="M1628,115L1582,-16L1440,192Z" fill="#f5a38b" stroke="#f5a38b" stroke-width="1.51"/><path d="M1483,1131L1590,970L1439,897Z" fill="#f39388" stroke="#f39388" stroke-width="1.51"/><path d="M-203,590L-173,698L-34,486Z" fill="#f9b68f" stroke="#f9b68f" stroke-width="1.51"/><path d="M-9,-139L-54,-33L182,-14Z" fill="#f59e8a" stroke="#f59e8a" stroke-width="1.51"/><path d="M-9,-139L182,-14L225,-156Z" fill="#f5a18b" stroke="#f5a18b" stroke-width="1.51"/><path d="M-203,951L-76,1041L6,907Z" fill="#f39488" stroke="#f39488" stroke-width="1.51"/><path d="M6,907L-76,1041L127,1059Z" fill="#f49989" stroke="#f49989" stroke-width="1.51"/><path d="M-203,590L-34,486L-210,382Z" fill="#fabf90" stroke="#fabf90" stroke-width="1.51"/><path d="M1220,1097L1483,1131L1254,922Z" fill="#f49b89" stroke="#f49b89" stroke-width="1.51"/><path d="M346,1124L1483,1131L706,1102Z" fill="#f8b68f" stroke="#f8b68f" stroke-width="1.51"/><path d="M-210,382L30,307L-35,222Z" fill="#f9ba90" stroke="#f9ba90" stroke-width="1.51"/><path d="M-178,129L-210,382L-35,222Z" fill="#f8af8d" stroke="#f8af8d" stroke-width="1.51"/><path d="M290,-242L-9,-139L225,-156Z" fill="#f49b89" stroke="#f49b89" stroke-width="1.51"/><path d="M1831,-30L1664,-224L1582,-16Z" fill="#f08685" stroke="#f08685" stroke-width="1.51"/><path d="M1837,531L1766,405L1597,560Z" fill="#f8b48e" stroke="#f8b48e" stroke-width="1.51"/><path d="M1837,531L1597,560L1667,713Z" fill="#f7ac8c" stroke="#f7ac8c" stroke-width="1.51"/><path d="M-54,-33L-178,129L-35,222Z" fill="#f5a58b" stroke="#f5a58b" stroke-width="1.51"/><path d="M-195,20L-178,129L-54,-33Z" fill="#f49b89" stroke="#f49b89" stroke-width="1.51"/><path d="M-203,951L6,907L-35,778Z" fill="#f59e8a" stroke="#f59e8a" stroke-width="1.51"/><path d="M127,1059L-225,1133L346,1124Z" fill="#f39387" stroke="#f39387" stroke-width="1.51"/><path d="M1590,970L1757,733L1667,713Z" fill="#f49a89" stroke="#f49a89" stroke-width="1.51"/><path d="M1845,939L1757,733L1590,970Z" fill="#f28e87" stroke="#f28e87" stroke-width="1.51"/><path d="M-178,129L-195,20L-210,382Z" fill="#f6a58b" stroke="#f6a58b" stroke-width="1.51"/><path d="M-226,-202L-195,20L-54,-33Z" fill="#f28e87" stroke="#f28e87" stroke-width="1.51"/><path d="M1757,733L1837,531L1667,713Z" fill="#f6a48b" stroke="#f6a48b" stroke-width="1.51"/><path d="M1831,-30L1582,-16L1628,115Z" fill="#f29287" stroke="#f29287" stroke-width="1.51"/><path d="M1483,1131L1655,1072L1590,970Z" fill="#f18885" stroke="#f18885" stroke-width="1.51"/><path d="M1757,733L1845,939L1837,531Z" fill="#f49d89" stroke="#f49d89" stroke-width="1.51"/><path d="M-173,698L-203,951L-35,778Z" fill="#f5a08a" stroke="#f5a08a" stroke-width="1.51"/><path d="M-203,590L-203,951L-173,698Z" fill="#f5a28b" stroke="#f5a28b" stroke-width="1.51"/><path d="M-225,1133L-203,951L-203,590Z" fill="#f39387" stroke="#f39387" stroke-width="1.51"/><path d="M1403,-220L1664,-224L1237,-250Z" fill="#f18a86" stroke="#f18a86" stroke-width="1.51"/><path d="M1582,-16L1664,-224L1445,-40Z" fill="#f28f87" stroke="#f28f87" stroke-width="1.51"/><path d="M1880,153L1628,115L1766,405Z" fill="#f5a38b" stroke="#f5a38b" stroke-width="1.51"/><path d="M1837,531L1880,153L1766,405Z" fill="#f7b08d" stroke="#f7b08d" stroke-width="1.51"/><path d="M1483,1131L1775,1052L1655,1072Z" fill="#ef8084" stroke="#ef8084" stroke-width="1.51"/><path d="M1655,1072L1775,1052L1590,970Z" fill="#f08384" stroke="#f08384" stroke-width="1.51"/><path d="M1775,1052L1845,939L1590,970Z" fill="#ef8384" stroke="#ef8384" stroke-width="1.51"/><path d="M1837,531L1845,939L1880,153Z" fill="#f7b08d" stroke="#f7b08d" stroke-width="1.51"/><path d="M1880,153L1831,-30L1628,115Z" fill="#f39488" stroke="#f39488" stroke-width="1.51"/><path d="M-203,951L-225,1133L-76,1041Z" fill="#f08785" stroke="#f08785" stroke-width="1.51"/><path d="M-76,1041L-225,1133L127,1059Z" fill="#f18b86" stroke="#f18b86" stroke-width="1.51"/><path d="M346,1124L-225,1133L1483,1131Z" fill="#f8b18d" stroke="#f8b18d" stroke-width="1.51"/><path d="M-210,382L-225,1133L-203,590Z" fill="#f6a68b" stroke="#f6a68b" stroke-width="1.51"/><path d="M-9,-139L-226,-202L-54,-33Z" fill="#f28e87" stroke="#f28e87" stroke-width="1.51"/><path d="M-195,20L-226,-202L-210,382Z" fill="#f49988" stroke="#f49988" stroke-width="1.51"/><path d="M-210,382L-226,-202L-225,1133Z" fill="#f9bd90" stroke="#f9bd90" stroke-width="1.51"/><path d="M290,-242L-226,-202L-9,-139Z" fill="#f28f87" stroke="#f28f87" stroke-width="1.51"/><path d="M1664,-224L1840,-244L1237,-250Z" fill="#ef7f84" stroke="#ef7f84" stroke-width="1.51"/><path d="M1831,-30L1840,-244L1664,-224Z" fill="#ee7b83" stroke="#ee7b83" stroke-width="1.51"/><path d="M1880,153L1840,-244L1831,-30Z" fill="#f08885" stroke="#f08885" stroke-width="1.51"/></svg>